<?xml version="1.0" encoding="UTF-8" standalone="no"?>
<!-- Created with Inkscape (http://www.inkscape.org/) -->

<svg
   version="1.1"
   id="svg1"
   width="481.88"
   height="384.21332"
   viewBox="0 0 481.88 384.21332"
   sodipodi:docname="рома лого вектор.eps"
   xmlns:inkscape="http://www.inkscape.org/namespaces/inkscape"
   xmlns:sodipodi="http://sodipodi.sourceforge.net/DTD/sodipodi-0.dtd"
   xmlns="http://www.w3.org/2000/svg"
   xmlns:svg="http://www.w3.org/2000/svg">
  <defs
     id="defs1" />
  <sodipodi:namedview
     id="namedview1"
     pagecolor="#ffffff"
     bordercolor="#000000"
     borderopacity="0.25"
     inkscape:showpageshadow="2"
     inkscape:pageopacity="0.0"
     inkscape:pagecheckerboard="0"
     inkscape:deskcolor="#d1d1d1">
    <inkscape:page
       x="0"
       y="0"
       inkscape:label="1"
       id="page1"
       width="481.88"
       height="384.21332"
       margin="0"
       bleed="0" />
  </sodipodi:namedview>
  <g
     id="g1"
     inkscape:groupmode="layer"
     inkscape:label="1">
    <g
       id="group-R5">
      <path
         id="path2"
         d="M 1384.14,70 H 70 v 1867.86 c 405.898,285.57 811.801,571.12 1217.7,856.69 1.29,0.98 2.59,1.95 3.89,2.93 1.33,-0.98 2.65,-1.95 3.98,-2.93 l 1217.71,-856.69 -0.02,-305.32 h 70 l 0.02,341.67 -1256.61,884.06 c -11.46,7.79 -22.92,15.57 -34.37,23.36 -11.89,-7.79 -23.79,-15.57 -35.69,-23.36 L 0,1974.21 V 0 h 1384.14 v 70"
         style="fill:#231f20;fill-opacity:1;fill-rule:nonzero;stroke:none"
         transform="matrix(0.13333333,0,0,-0.13333333,0,384.21333)" />
      <path
         id="path3"
         d="m 1757.55,1165.96 c 34.22,2.65 65.58,18.63 80.98,34.61 v 130.48 h 136.86 v -171.48 c -35.92,-42.07 -109.49,-94.79 -217.84,-94.79 z m -89.52,195.34 v 108.35 h 306.79 V 1361.3 Z m -143.89,-151.11 h 122.59 c 14.26,-17.11 45.06,-34.22 80.98,-37.06 v -108.35 c -87.25,0 -149.97,27.37 -203.57,62.72 v 82.69"
         style="fill:#050606;fill-opacity:1;fill-rule:nonzero;stroke:none"
         transform="matrix(0.13333333,0,0,-0.13333333,0,384.21333)" />
      <path
         id="path4"
         d="m 2675.03,1161.72 h 106.64 c 26.23,0 40.48,7.41 50.17,17.1 h 136.87 v -48.47 c -26.24,-23.94 -76.99,-59.87 -189.9,-59.87 h -103.78 z m 0,144.92 h 106.64 c 26.23,0 40.48,6 50.17,11.13 v 13.28 h 136.87 v -36.39 c -10.84,-6.86 -29.66,-15.84 -46.2,-22.26 16.54,-6.85 35.36,-15.84 46.2,-22.69 v -38.53 h -136.87 v 15.41 c -9.69,5.14 -23.94,11.56 -50.17,11.56 h -106.64 z m 0,163.01 h 103.78 c 113.48,0 164.8,-34.79 189.9,-59.87 v -48.48 h -136.87 c -9.69,10.83 -23.94,17.11 -50.17,17.11 h -106.64 z m -166.7,0 h 136.85 v -399.17 h -136.85 v 399.17"
         style="fill:#050606;fill-opacity:1;fill-rule:nonzero;stroke:none"
         transform="matrix(0.13333333,0,0,-0.13333333,0,384.21333)" />
      <path
         id="path5"
         d="m 1771.81,643.57 c 42.77,2.629 74.71,17.36 90.1,31.051 v 47.859 h 136.86 V 632 c -34.79,-39.98 -106.64,-88.379 -226.96,-88.379 z m 0,299.219 c 120.32,0 191.6,-49.641 226.96,-90.629 v -92.789 h -136.86 v 49.09 c -15.39,14.019 -47.33,29.141 -90.1,31.82 z m -29.84,0 V 834.441 h -80.98 V 651.969 h 80.98 V 543.621 h -217.83 v 399.168 h 217.83"
         style="fill:#050606;fill-opacity:1;fill-rule:nonzero;stroke:none"
         transform="matrix(0.13333333,0,0,-0.13333333,0,384.21333)" />
      <path
         id="path6"
         d="m 2289.46,638.121 c 39.84,2.617 68.16,20.559 82.31,34.258 v 50.101 h 125.84 v -90.691 c -34.08,-40.609 -106.43,-93.867 -208.15,-93.867 z m 0,310.379 c 101.72,0 173.54,-54.512 208.15,-96.09 v -92.832 h -125.84 v 51.274 c -14.15,14.039 -42.47,32.378 -82.31,35.097 z M 2032.79,722.48 h 126.42 v -50.101 c 13.7,-13.699 42.14,-31.641 83.23,-34.258 V 537.922 c -102.19,0 -174.89,53.258 -209.65,93.867 z m -0.92,38.18 0.91,92.84 c 34.65,41.211 108.39,94.969 210.57,93.91 l -1,-102.551 c -41.1,-2.281 -69.73,-20.328 -83.57,-34.218 l -0.49,-51.27 -126.42,1.289"
         style="fill:#050606;fill-opacity:1;fill-rule:nonzero;stroke:none"
         transform="matrix(0.13333333,0,0,-0.13333333,0,384.21333)" />
      <path
         id="path7"
         d="m 2840.88,942.789 h 136.86 V 543.621 H 2840.88 Z M 2531.7,805.469 h 136.86 V 543.621 H 2531.7 Z m 319.34,-153.5 V 543.621 h -97.51 l -78.12,290.82 H 2531.7 v 108.348 h 241.22 l 78.12,-290.82"
         style="fill:#050606;fill-opacity:1;fill-rule:nonzero;stroke:none"
         transform="matrix(0.13333333,0,0,-0.13333333,0,384.21333)" />
      <path
         id="path8"
         d="m 3178.54,651.969 h 242.35 V 543.621 h -242.35 z m 0,145.98 h 188.18 v -108.34 h -188.18 z m 0,144.84 h 242.35 V 834.441 h -242.35 z m -166.7,0 H 3148.7 V 543.621 h -136.86 v 399.168"
         style="fill:#050606;fill-opacity:1;fill-rule:nonzero;stroke:none"
         transform="matrix(0.13333333,0,0,-0.13333333,0,384.21333)" />
      <path
         id="path9"
         d="m 1780.94,119.41 c 44.48,2.86 74.13,22.25 88.96,37.078 h 123.16 V 76.6484 C 1945.17,44.1406 1873.88,11.0703 1780.94,11.0703 Z m 0,302.238 c 92.94,0 164.23,-32.507 212.12,-65.578 V 276.23 H 1869.9 c -14.83,14.829 -44.48,34.219 -88.96,37.071 z m -256.8,-224.75 h 136.85 v -50.437 c 14.83,-13.801 45.63,-31.859 90.1,-34.52 V 11.0703 c -110.63,0 -189.32,53.6289 -226.95,94.5077 z m 0,25.161 v 98.089 c 37.06,43.903 116.32,101.5 226.95,101.5 V 313.301 c -44.47,-2.852 -75.27,-22.242 -90.1,-37.071 v -54.171 h -136.85"
         style="fill:#050606;fill-opacity:1;fill-rule:nonzero;stroke:none"
         transform="matrix(0.13333333,0,0,-0.13333333,0,384.21333)" />
      <path
         id="path10"
         d="m 2193.87,150.789 h 242.36 l 51.31,-32.969 V 16.7813 h -83.25 l -130.58,84.0197 h -79.84 z m 0,74.699 h 104.92 c 25.67,0 43.34,6.832 51.9,16.532 v 22.8 h 136.85 v -55.308 c -11.4,-10.832 -28.51,-25.653 -51.31,-37.621 h -242.36 z m 0,190.453 h 102.07 c 100.36,0 158.53,-34.679 191.6,-54.363 v -72.476 h -136.85 v 12.937 c -8.56,8.813 -26.23,15.539 -51.9,15.539 H 2193.87 Z M 2027.16,16.7813 V 415.941 h 136.86 V 16.7813 h -136.86"
         style="fill:#050606;fill-opacity:1;fill-rule:nonzero;stroke:none"
         transform="matrix(0.13333333,0,0,-0.13333333,0,384.21333)" />
      <path
         id="path11"
         d="M 2688.34,125.129 H 2930.7 V 16.7813 h -242.36 z m 0,145.973 h 188.19 V 162.75 h -188.19 z m 0,144.839 H 2930.7 V 307.602 h -242.36 z m -166.69,0 H 2658.5 V 16.7813 H 2521.65 V 415.941"
         style="fill:#050606;fill-opacity:1;fill-rule:nonzero;stroke:none"
         transform="matrix(0.13333333,0,0,-0.13333333,0,384.21333)" />
      <path
         id="path12"
         d="M 3168.75,211.84 3062.31,415.941 H 2964.8 V 307.602 L 3117.62,16.7813 h 13.69 37.44 V 211.84"
         style="fill:#050606;fill-opacity:1;fill-rule:nonzero;stroke:none"
         transform="matrix(0.13333333,0,0,-0.13333333,0,384.21333)" />
      <path
         id="path13"
         d="M 3222.74,415.941 V 265.398 l -24.01,-46.16 V 16.7813 h 13.18 35.36 l 47.32,91.8007 v 307.359 h -71.85"
         style="fill:#050606;fill-opacity:1;fill-rule:nonzero;stroke:none"
         transform="matrix(0.13333333,0,0,-0.13333333,0,384.21333)" />
      <path
         id="path14"
         d="m 3410.18,211.84 106.45,204.101 h 97.51 V 307.602 L 3461.31,16.7813 h -13.69 -37.44 V 211.84"
         style="fill:#050606;fill-opacity:1;fill-rule:nonzero;stroke:none"
         transform="matrix(0.13333333,0,0,-0.13333333,0,384.21333)" />
      <path
         id="path15"
         d="M 3356.2,415.941 V 265.398 l 24.01,-46.16 V 16.7813 h -13.18 -35.36 l -47.33,91.8007 v 307.359 h 71.86"
         style="fill:#050606;fill-opacity:1;fill-rule:nonzero;stroke:none"
         transform="matrix(0.13333333,0,0,-0.13333333,0,384.21333)" />
      <path
         id="path16"
         d="m 2261.8,1163.7 c 39.85,2.63 68.16,20.57 82.32,34.27 v 50.1 h 125.83 v -90.71 c -34.09,-40.59 -106.44,-93.85 -208.15,-93.85 z m 0,310.38 c 101.71,0 173.55,-54.51 208.15,-96.08 v -92.83 h -125.83 v 51.27 c -14.16,14.03 -42.47,32.38 -82.32,35.09 z m -256.67,-226.01 h 126.42 v -50.1 c 13.69,-13.7 42.14,-31.64 83.22,-34.27 v -100.19 c -102.19,0 -174.87,53.26 -209.64,93.85 z m -0.93,38.18 0.92,92.83 c 34.64,41.21 108.39,94.97 210.58,93.92 l -1.01,-102.55 c -41.11,-2.29 -69.73,-20.34 -83.56,-34.23 l -0.51,-51.27 -126.42,1.3"
         style="fill:#050606;fill-opacity:1;fill-rule:nonzero;stroke:none"
         transform="matrix(0.13333333,0,0,-0.13333333,0,384.21333)" />
    </g>
  </g>
</svg>
